<svg height="256" width="256" xmlns="http://www.w3.org/2000/svg" viewBox="-84.22 -84.22 663.84 663.84" xml:space="preserve" stroke="#000" stroke-width=".005"><rect x="-84.22" y="-84.22" width="663.84" height="663.84" rx="331.92" stroke="none" stroke-width="0"/><path style="fill:#fff" d="M185.049 381.529c-22.852 0-41.379 18.517-41.379 41.36 0 22.861 18.527 41.379 41.379 41.379 22.843 0 41.37-18.518 41.37-41.379 0-22.841-18.527-41.36-41.37-41.36zM365.622 381.529c-22.861 0-41.379 18.517-41.379 41.36 0 22.861 18.518 41.379 41.379 41.379 22.844 0 41.38-18.518 41.38-41.379 0-22.841-18.536-41.36-41.38-41.36zM469.558 154.735l-229.192-.019c-11.46 0-20.75 9.29-20.75 20.75s9.29 20.75 20.75 20.75l202.778-.01-12.864 43.533-206.164.044c-10.631 0-19.25 8.619-19.25 19.25 0 10.632 8.619 19.25 19.25 19.25l194.768.076-12.093 40.715H174.455L159.04 196.188 144.321 76.471a23.249 23.249 0 0 0-17.319-19.611l-98-25C16.56 28.684 3.901 36.199.727 48.641s4.339 25.102 16.781 28.275l82.667 21.089 32.192 241.591s1.095 28.183 26.69 28.183h256.81c21.518 0 25.678-22.438 25.678-22.438l50.896-151.159c0-.02 15.091-39.447-22.883-39.447z"/></svg>